<svg width="20" height="20" viewBox="0 0 20 20" fill="none" xmlns="http://www.w3.org/2000/svg">
<path opacity="0.4" d="M7.5 5.99984V13.9915C7.5 16.6665 9.16667 18.3332 11.8333 18.3332H13.9917C16.6583 18.3332 18.325 16.6665 18.325 13.9998V5.99984C18.3333 3.33317 16.6667 1.6665 14 1.6665H11.8333C9.16667 1.6665 7.5 3.33317 7.5 5.99984Z" fill="#B6BEC7"/>
<path d="M4.64186 6.7666L1.8502 9.55827C1.60853 9.79994 1.60853 10.1999 1.8502 10.4416L4.64186 13.2333C4.88353 13.4749 5.28353 13.4749 5.5252 13.2333C5.76686 12.9916 5.76686 12.5916 5.5252 12.3499L3.8002 10.6249H12.7085C13.0502 10.6249 13.3335 10.3416 13.3335 9.99993C13.3335 9.65827 13.0502 9.37493 12.7085 9.37493H3.8002L5.5252 7.64994C5.6502 7.52494 5.70853 7.3666 5.70853 7.20827C5.70853 7.04993 5.6502 6.88327 5.5252 6.7666C5.28353 6.5166 4.89186 6.5166 4.64186 6.7666Z" fill="#B6BEC7"/>
</svg>
