<svg width="20" height="20" viewBox="0 0 20 20" fill="none" xmlns="http://www.w3.org/2000/svg">
<path fill-rule="evenodd" clip-rule="evenodd" d="M6.6665 1.0415C7.01168 1.0415 7.2915 1.32133 7.2915 1.6665V4.1665C7.2915 4.51168 7.01168 4.7915 6.6665 4.7915C6.32133 4.7915 6.0415 4.51168 6.0415 4.1665V1.6665C6.0415 1.32133 6.32133 1.0415 6.6665 1.0415Z" fill="#B6BEC7"/>
<path fill-rule="evenodd" clip-rule="evenodd" d="M13.3335 1.0415C13.6787 1.0415 13.9585 1.32133 13.9585 1.6665V4.1665C13.9585 4.51168 13.6787 4.7915 13.3335 4.7915C12.9883 4.7915 12.7085 4.51168 12.7085 4.1665V1.6665C12.7085 1.32133 12.9883 1.0415 13.3335 1.0415Z" fill="#B6BEC7"/>
<path opacity="0.4" d="M17.9168 6.97484V14.2748C17.9168 14.4082 17.9085 14.5415 17.9002 14.6665H2.10016C2.09183 14.5415 2.0835 14.4082 2.0835 14.2748V6.97484C2.0835 4.73317 3.90016 2.9165 6.14183 2.9165H13.8585C16.1002 2.9165 17.9168 4.73317 17.9168 6.97484Z" fill="#B6BEC7"/>
<path d="M17.9001 14.6665C17.7001 16.7248 15.9668 18.3332 13.8584 18.3332H6.14176C4.03343 18.3332 2.3001 16.7248 2.1001 14.6665H17.9001Z" fill="#B6BEC7"/>
<path d="M11.2748 9.6833C11.6498 9.42497 11.8832 9.04163 11.8832 8.52497C11.8832 7.44163 11.0165 6.8833 9.99984 6.8833C8.98317 6.8833 8.10817 7.44163 8.10817 8.52497C8.10817 9.04163 8.34984 9.4333 8.7165 9.6833C8.20817 9.9833 7.9165 10.4666 7.9165 11.0333C7.9165 12.0666 8.70817 12.7083 9.99984 12.7083C11.2832 12.7083 12.0832 12.0666 12.0832 11.0333C12.0832 10.4666 11.7915 9.97497 11.2748 9.6833ZM9.99984 7.91663C10.4332 7.91663 10.7498 8.1583 10.7498 8.57497C10.7498 8.9833 10.4332 9.24163 9.99984 9.24163C9.5665 9.24163 9.24984 8.9833 9.24984 8.57497C9.24984 8.1583 9.5665 7.91663 9.99984 7.91663ZM9.99984 11.6666C9.44984 11.6666 9.04984 11.3916 9.04984 10.8916C9.04984 10.3916 9.44984 10.125 9.99984 10.125C10.5498 10.125 10.9498 10.4 10.9498 10.8916C10.9498 11.3916 10.5498 11.6666 9.99984 11.6666Z" fill="#B6BEC7"/>
</svg>
