<svg width="20" height="20" viewBox="0 0 20 20" fill="none" xmlns="http://www.w3.org/2000/svg">
<path opacity="0.4" d="M6.37481 17.425C6.34981 17.425 6.31647 17.4417 6.29147 17.4417C4.67481 16.6417 3.35814 15.3167 2.5498 13.7C2.5498 13.675 2.56647 13.6417 2.56647 13.6167C3.58314 13.9167 4.63314 14.1417 5.67481 14.3167C5.85814 15.3667 6.07481 16.4084 6.37481 17.425Z" fill="#B6BEC7"/>
<path opacity="0.4" d="M17.4502 13.7084C16.6252 15.3667 15.2502 16.7084 13.5752 17.5167C13.8919 16.4584 14.1585 15.3917 14.3335 14.3167C15.3835 14.1417 16.4169 13.9167 17.4335 13.6167C17.4252 13.65 17.4502 13.6834 17.4502 13.7084Z" fill="#B6BEC7"/>
<path opacity="0.4" d="M17.5169 6.42506C16.4669 6.1084 15.4085 5.85006 14.3335 5.66673C14.1585 4.59173 13.9002 3.52506 13.5752 2.4834C15.3002 3.3084 16.6919 4.70006 17.5169 6.42506Z" fill="#B6BEC7"/>
<path opacity="0.4" d="M6.37506 2.5748C6.07506 3.59147 5.8584 4.6248 5.6834 5.67481C4.6084 5.84147 3.54173 6.10814 2.4834 6.42481C3.29173 4.7498 4.6334 3.3748 6.29173 2.5498C6.31673 2.5498 6.35006 2.5748 6.37506 2.5748Z" fill="#B6BEC7"/>
<path d="M12.9085 5.4915C10.9751 5.27484 9.02513 5.27484 7.0918 5.4915C7.30013 4.34984 7.5668 3.20817 7.9418 2.10817C7.95846 2.0415 7.95013 1.9915 7.95846 1.92484C8.6168 1.7665 9.2918 1.6665 10.0001 1.6665C10.7001 1.6665 11.3835 1.7665 12.0335 1.92484C12.0418 1.9915 12.0418 2.0415 12.0585 2.10817C12.4335 3.2165 12.7001 4.34984 12.9085 5.4915Z" fill="#B6BEC7"/>
<path d="M5.4915 12.9085C4.3415 12.7001 3.20817 12.4335 2.10817 12.0585C2.0415 12.0418 1.9915 12.0501 1.92484 12.0418C1.7665 11.3835 1.6665 10.7085 1.6665 10.0001C1.6665 9.30013 1.7665 8.6168 1.92484 7.9668C1.9915 7.95846 2.0415 7.95846 2.10817 7.9418C3.2165 7.57513 4.3415 7.30013 5.4915 7.0918C5.28317 9.02513 5.28317 10.9751 5.4915 12.9085Z" fill="#B6BEC7"/>
<path d="M18.3333 10.0001C18.3333 10.7085 18.2333 11.3835 18.075 12.0418C18.0083 12.0501 17.9583 12.0418 17.8916 12.0585C16.7833 12.4251 15.65 12.7001 14.5083 12.9085C14.725 10.9751 14.725 9.02513 14.5083 7.0918C15.65 7.30013 16.7916 7.5668 17.8916 7.9418C17.9583 7.95846 18.0083 7.9668 18.075 7.9668C18.2333 8.62513 18.3333 9.30013 18.3333 10.0001Z" fill="#B6BEC7"/>
<path d="M12.9085 14.5083C12.7001 15.6583 12.4335 16.7916 12.0585 17.8916C12.0418 17.9583 12.0418 18.0083 12.0335 18.075C11.3835 18.2333 10.7001 18.3333 10.0001 18.3333C9.2918 18.3333 8.6168 18.2333 7.95846 18.075C7.95013 18.0083 7.95846 17.9583 7.9418 17.8916C7.57513 16.7833 7.30013 15.6583 7.0918 14.5083C8.05846 14.6166 9.02513 14.6916 10.0001 14.6916C10.9751 14.6916 11.9501 14.6166 12.9085 14.5083Z" fill="#B6BEC7"/>
<path d="M13.1359 13.1359C11.0517 13.3989 8.94797 13.3989 6.86373 13.1359C6.60076 11.0517 6.60076 8.94797 6.86373 6.86373C8.94797 6.60076 11.0517 6.60076 13.1359 6.86373C13.3989 8.94797 13.3989 11.0517 13.1359 13.1359Z" fill="#B6BEC7"/>
</svg>
