<svg width="20" height="20" viewBox="0 0 20 20" fill="none" xmlns="http://www.w3.org/2000/svg">
<path opacity="0.4" d="M18.3082 5.3415V10.7582H1.6665V5.3415C1.6665 3.3165 3.3165 1.6665 5.3415 1.6665H14.6332C16.6582 1.6665 18.3082 3.3165 18.3082 5.3415Z" fill="#B6BEC7"/>
<path d="M1.6665 10.7666V10.9333C1.6665 12.9666 3.3165 14.6083 5.3415 14.6083H8.5415C8.99984 14.6083 9.37484 14.9833 9.37484 15.4416V16.2499C9.37484 16.7083 8.99984 17.0833 8.5415 17.0833H6.52484C6.18317 17.0833 5.89984 17.3666 5.89984 17.7083C5.89984 18.0499 6.17484 18.3333 6.52484 18.3333H13.4832C13.8248 18.3333 14.1082 18.0499 14.1082 17.7083C14.1082 17.3666 13.8248 17.0833 13.4832 17.0833H11.4665C11.0082 17.0833 10.6332 16.7083 10.6332 16.2499V15.4416C10.6332 14.9833 11.0082 14.6083 11.4665 14.6083H14.6415C16.6748 14.6083 18.3165 12.9583 18.3165 10.9333V10.7666H1.6665Z" fill="#B6BEC7"/>
</svg>
