<svg width="20" height="20" viewBox="0 0 20 20" fill="none" xmlns="http://www.w3.org/2000/svg">
<path opacity="0.4" d="M17.5 1.6665V11.7498C17.5 13.3332 16.6667 14.1665 15.0833 14.1665H4.91666C3.33333 14.1665 2.5 13.3332 2.5 11.7498V1.6665H17.5Z" fill="#B6BEC7"/>
<path d="M18.3332 2.2915H1.6665C1.32484 2.2915 1.0415 2.00817 1.0415 1.6665C1.0415 1.32484 1.32484 1.0415 1.6665 1.0415H18.3332C18.6748 1.0415 18.9582 1.32484 18.9582 1.6665C18.9582 2.00817 18.6748 2.2915 18.3332 2.2915Z" fill="#B6BEC7"/>
<path d="M13.8919 18.6165C13.7836 18.8332 13.5586 18.9582 13.3336 18.9582C13.2419 18.9582 13.1419 18.9332 13.0586 18.8915L10.0002 17.3665L6.94188 18.8915C6.85854 18.9332 6.75855 18.9582 6.66689 18.9582C6.44189 18.9582 6.21688 18.8332 6.10854 18.6165C5.95021 18.2998 6.07523 17.9248 6.3919 17.7748L9.37522 16.2832V14.1665H10.6252V16.2832L13.6085 17.7748C13.9252 17.9248 14.0502 18.2998 13.8919 18.6165Z" fill="#B6BEC7"/>
<path d="M6.2501 9.79161C6.0751 9.79161 5.89178 9.71661 5.76678 9.56661C5.54178 9.29995 5.58343 8.90828 5.85009 8.68328L8.47511 6.49161C8.71678 6.29161 9.0251 6.20828 9.31676 6.25828C9.61676 6.30828 9.87511 6.49159 10.0334 6.75826L10.9084 8.21659L13.3501 6.18328C13.6168 5.95828 14.0084 5.99993 14.2334 6.2666C14.4584 6.53326 14.4168 6.92493 14.1501 7.14993L11.5251 9.3416C11.2834 9.5416 10.9751 9.62493 10.6834 9.57493C10.3834 9.52493 10.1251 9.34162 9.96676 9.07495L9.09177 7.61662L6.65011 9.64993C6.53344 9.74159 6.39177 9.79161 6.2501 9.79161Z" fill="#B6BEC7"/>
</svg>
