<svg width="20" height="20" viewBox="0 0 20 20" fill="none" xmlns="http://www.w3.org/2000/svg">
<path d="M18.3335 4.99984V7.0165C18.3335 8.33317 17.5002 9.1665 16.1835 9.1665H13.3335V3.3415C13.3335 2.4165 14.0918 1.6665 15.0168 1.6665C15.9252 1.67484 16.7585 2.0415 17.3585 2.6415C17.9585 3.24984 18.3335 4.08317 18.3335 4.99984Z" fill="#B6BEC7"/>
<path opacity="0.4" d="M1.6665 5.83317V17.4998C1.6665 18.1915 2.44984 18.5832 2.99984 18.1665L4.42483 17.0998C4.75817 16.8498 5.22484 16.8832 5.52484 17.1832L6.90816 18.5748C7.23316 18.8998 7.76651 18.8998 8.09151 18.5748L9.4915 17.1748C9.78317 16.8832 10.2498 16.8498 10.5748 17.0998L11.9998 18.1665C12.5498 18.5748 13.3332 18.1832 13.3332 17.4998V3.33317C13.3332 2.4165 14.0832 1.6665 14.9998 1.6665H5.83317H4.99984C2.49984 1.6665 1.6665 3.15817 1.6665 4.99984V5.83317Z" fill="#B6BEC7"/>
<path d="M10 8.125H5C4.65833 8.125 4.375 7.84167 4.375 7.5C4.375 7.15833 4.65833 6.875 5 6.875H10C10.3417 6.875 10.625 7.15833 10.625 7.5C10.625 7.84167 10.3417 8.125 10 8.125Z" fill="#B6BEC7"/>
<path d="M9.375 11.4585H5.625C5.28333 11.4585 5 11.1752 5 10.8335C5 10.4918 5.28333 10.2085 5.625 10.2085H9.375C9.71667 10.2085 10 10.4918 10 10.8335C10 11.1752 9.71667 11.4585 9.375 11.4585Z" fill="#B6BEC7"/>
</svg>
